# xmcd CD database file
#
# Track frame offsets:
#	150
#	15038
#	31635
#	45589
#	62230
#	76402
#
# Disc length: 1241 seconds
#
# Revision: 0
# Processed by: cddbd v1.4b42PL1 Copyright (c) Steve Scherf et al.
# Submitted via: Feurio! 1.62 - http://www.feurio.com
#
DISCID=3504d706
DTITLE=Jeans and More - Push To The Limit
DYEAR=2001
DGENRE=
TTITLE0=By The Lights
TTITLE1=Push To The Limit
TTITLE2=The Way To Be
TTITLE3=Goodbye Australia
TTITLE4=Falling Down
TTITLE5=Lisa
EXTD=Debüt Album
EXTT0=
EXTT1=
EXTT2=
EXTT3=
EXTT4=
EXTT5=
PLAYORDER=
